<svg width="45" height="40" viewBox="0 0 45 40" fill="none" xmlns="http://www.w3.org/2000/svg">
<path d="M34.1225 18.8954V18.6231V18.0094V13.2829V13.2755H34.1151L26.3372 6.00208H15.8963V6.81269V9.91795H3.94176V10.4151V10.7217V33.932H2.84985V34.4392H4.62308V34.1858H5.69968V34.4392H7.47291V34.1858H8.54951V34.4392H10.3227V34.1858H11.3993V34.4392H13.1726V34.1858H14.2492V34.4392H16.0224V34.1858H16.7269H17.099V34.4392H18.8722V34.1858H19.9488V34.4392H21.7221V34.1858H22.7987V34.4392H24.5719V34.1858H25.6485V34.4392H27.4212V34.1858H28.4983V34.4392H30.271V34.1858H31.3476V34.4392H33.1208V34.1858H34.1215V21.8519H32.7604V32.8258H17.8268V7.36313H26.0169L32.7615 13.6375V17.9972V18.6094V18.8822V19.1546H19.5731V21.3146H33.3114H34.122H36.6351V19.1688H34.122L34.1225 18.8954ZM5.30282 11.8221H15.8963V32.8253H5.30282V11.8221Z" fill="black"/>
<path d="M13.6412 13.8344H10.794V18.384H13.6412V13.8344Z" fill="black"/>
<path d="M22.4208 27.912H19.5731V28.9005H22.4208V27.912Z" fill="black"/>
<path d="M30.5734 22.6825H25.7039V31.7085H30.5734V22.6825Z" fill="black"/>
<path d="M9.87518 13.8344H7.02747V18.384H9.87518V13.8344Z" fill="black"/>
<path d="M13.6343 19.0658H7.02747V20.0532H13.6343V19.0658Z" fill="black"/>
<path d="M13.6412 22.6825H10.794V27.2317H13.6412V22.6825Z" fill="black"/>
<path d="M9.87518 22.6825H7.02747V27.2317H9.87518V22.6825Z" fill="black"/>
<path d="M13.6343 27.912H7.02747V28.9005H13.6343V27.912Z" fill="black"/>
<path d="M26.1804 10.7216H23.3333V15.2723H26.1804V10.7216Z" fill="black"/>
<path d="M22.4145 22.6825H19.5673V27.2317H22.4145V22.6825Z" fill="black"/>
<path d="M26.1804 15.9528H19.5731V16.9402H26.1804V15.9528Z" fill="black"/>
<path d="M22.4208 10.7216H19.5731V15.2723H22.4208V10.7216Z" fill="black"/>
<path d="M10.3227 3.50208H8.54948V4.00924H10.3227V3.50208Z" fill="black"/>
<path d="M13.1725 3.50208H11.3993V4.00924H13.1725V3.50208Z" fill="black"/>
<path d="M38.821 3.50208H37.0478V4.00924H38.821V3.50208Z" fill="black"/>
<path d="M7.47289 3.50208H5.69966V4.00924H7.47289V3.50208Z" fill="black"/>
<path d="M21.722 3.50208H19.9488V4.00924H21.722V3.50208Z" fill="black"/>
<path d="M24.5719 3.50208H22.7986V4.00924H24.5719V3.50208Z" fill="black"/>
<path d="M18.8722 3.50208H17.099V4.00924H18.8722V3.50208Z" fill="black"/>
<path d="M27.4212 3.50208H25.6485V4.00924H27.4212V3.50208Z" fill="black"/>
<path d="M44.5207 3.50208H42.748V4.00924H44.5207V3.50208Z" fill="black"/>
<path d="M1.77323 3.50208H0V4.00924H1.77323V3.50208Z" fill="black"/>
<path d="M30.2715 3.50208H28.4988V4.00924H30.2715V3.50208Z" fill="black"/>
<path d="M35.9712 3.50208H34.1974V4.00924H35.9712V3.50208Z" fill="black"/>
<path d="M33.1214 3.50208H31.3481V4.00924H33.1214V3.50208Z" fill="black"/>
<path d="M44.5207 33.9319H42.748V34.439H44.5207V33.9319Z" fill="black"/>
<path d="M38.821 33.9319H37.0478V34.439H38.821V33.9319Z" fill="black"/>
<path d="M1.77323 33.9319H0V34.439H1.77323V33.9319Z" fill="black"/>
<path d="M39.8976 34.1973H39.5794V35.9716H40.086V34.439H41.6708V33.9319H39.8976V34.1973Z" fill="black"/>
<path d="M35.9712 33.9319H34.1974V34.439H35.9712V33.9319Z" fill="black"/>
<path d="M40.086 28.4983H39.5794V30.272H40.086V28.4983Z" fill="black"/>
<path d="M40.086 31.3481H39.5794V33.1214H40.086V31.3481Z" fill="black"/>
<path d="M40.086 4.00931H41.6708V3.50215H40.086V2.84985H39.5794V4.62308H40.086V4.00931Z" fill="black"/>
<path d="M40.086 8.54956H39.5794V10.3228H40.086V8.54956Z" fill="black"/>
<path d="M40.086 11.3988H39.5794V13.1726H40.086V11.3988Z" fill="black"/>
<path d="M40.086 14.2491H39.5794V16.0229H40.086V14.2491Z" fill="black"/>
<path d="M40.086 22.7986H39.5794V24.5718H40.086V22.7986Z" fill="black"/>
<path d="M40.086 0H39.5794V1.77375H40.086V0Z" fill="black"/>
<path d="M40.086 37.0477H39.5794V38.7951H40.086V37.0477Z" fill="black"/>
<path d="M40.086 5.69922H39.5794V7.47297H40.086V5.69922Z" fill="black"/>
<path d="M40.086 19.9482H39.5794V21.722H40.086V19.9482Z" fill="black"/>
<path d="M40.086 25.6479H39.5794V27.4217H40.086V25.6479Z" fill="black"/>
<path d="M14.9437 5.28959C14.9437 5.42944 15.0571 5.5429 15.197 5.5429C15.3368 5.5429 15.4503 5.42891 15.4503 5.28959V4.00927H16.0218V3.50211H15.4503V0.509788C15.4503 0.369935 15.3368 0.25647 15.197 0.25647C15.0571 0.25647 14.9437 0.370463 14.9437 0.509788V3.50211H14.2491V4.00927H14.9437V5.28959Z" fill="black"/>
<path d="M3.94334 5.28959C3.94334 5.42944 4.05681 5.5429 4.19666 5.5429C4.33651 5.5429 4.44998 5.42891 4.44998 5.28959V4.00927H4.62308V3.50211H4.44998V0.509788C4.44998 0.369935 4.33651 0.25647 4.19666 0.25647C4.05681 0.25647 3.94334 0.370463 3.94334 0.509788V3.50211H2.84985V4.00927H3.94334V5.28959Z" fill="black"/>
<path d="M37.7391 18.8121V19.3192H43.0261V18.8121H40.086V17.099H39.5794V18.8121H37.7391Z" fill="black"/>
<path d="M31.1238 37.0804C30.984 37.0804 30.871 37.1944 30.871 37.3338V38.2874H25.8775V37.3338C25.8775 37.1939 25.764 37.0804 25.6242 37.0804C25.4843 37.0804 25.3709 37.1944 25.3709 37.3338V39.7466C25.3709 39.8865 25.4843 39.9999 25.6242 39.9999C25.764 39.9999 25.8775 39.8859 25.8775 39.7466V38.794H30.871V39.7466C30.871 39.8865 30.9845 39.9999 31.1238 39.9999C31.2642 39.9999 31.3771 39.8859 31.3771 39.7466V37.3338C31.3777 37.1944 31.2642 37.0804 31.1238 37.0804Z" fill="black"/>
</svg>
