<svg width="42" height="48" viewBox="0 0 42 48" fill="none" xmlns="http://www.w3.org/2000/svg">
<path d="M20.9648 1L1 12.4651L2.05448 12.8872L20.9648 2.05507L40.0861 13.1685L40.7188 12.4651L20.9648 1Z" fill="#E0E0E0"/>
<path d="M40.7188 12.4651L40.0861 13.1685V35.4658L20.9648 46.2275L2.05448 35.4658V12.8872L1 12.4651L1.1406 36.0285L20.9648 47.3529L41 36.0285L40.7188 12.4651Z" fill="#E0E0E0"/>
<path d="M18.0123 29.1353L14.0053 31.6675L22.7926 36.2395L26.7996 33.9033L18.0123 29.1353Z" fill="#E0E0E0"/>
<path d="M26.7996 33.9033L22.7926 36.2395L14.0053 31.6675V32.7929L16.1142 33.9071L16.4657 34.0928L18.3989 35.1141L18.645 35.2441L22.3708 37.2124L22.7926 37.4352L24.7961 36.4505L25.1125 36.295L26.7996 35.4658V33.9033Z" fill="#E0E0E0"/>
<path d="M22.7926 37.4352L22.3708 37.2124L22.4411 40.9522H22.652L22.7926 37.4352Z" fill="#E0E0E0"/>
<path d="M24.7961 36.4505L25.6046 39.1937L25.8155 39.053L25.1125 36.295L24.7961 36.4505Z" fill="#E0E0E0"/>
<path d="M16.1142 33.9071L15.5518 36.2395H15.7627L16.4657 34.0928L16.1142 33.9071Z" fill="#E0E0E0"/>
<path d="M18.3989 35.1141L18.4341 35.6768H18.5747L18.645 35.2441L18.3989 35.1141Z" fill="#E0E0E0"/>
<path d="M7.32689 16.3337V21.0816L11.1582 18.989V14.0829L7.32689 16.3337Z" fill="#E0E0E0"/>
<path d="M14.9895 21.9608V16.8965L11.1582 18.989V23.8951L14.9895 21.9608Z" fill="#E0E0E0"/>
<path d="M32.5641 17.5295V31.0663L37.4148 33.9033V20.2024L32.5641 17.5295Z" fill="#E0E0E0"/>
<path d="M14.9895 16.8965V11.8321L11.1582 14.0829V18.989L14.9895 16.8965Z" fill="#E0E0E0"/>
<path d="M7.32689 21.0816V25.8294L11.1582 23.8951V18.989L7.32689 21.0816Z" fill="#E0E0E0"/>
<path d="M1 12.4651L20.9648 1L40.7188 12.4651M1 12.4651L2.05448 12.8872M1 12.4651L1.1406 36.0285L20.9648 47.3529L41 36.0285L40.7188 12.4651M40.7188 12.4651L40.0861 13.1685M40.0861 13.1685L20.9648 2.05507M40.0861 13.1685V35.4658M20.9648 2.05507L2.05448 12.8872M20.9648 2.05507V24.282M2.05448 12.8872V35.4658M2.05448 35.4658L20.9648 46.2275L40.0861 35.4658M2.05448 35.4658L20.9648 24.282M40.0861 35.4658L37.4148 33.9033M20.9648 24.282L32.5641 31.0663M7.32689 21.0816V25.8294L11.1582 23.8951M7.32689 21.0816V16.3337L11.1582 14.0829M7.32689 21.0816L11.1582 18.989M14.9895 16.8965V11.8321L11.1582 14.0829M14.9895 16.8965V21.9608L11.1582 23.8951M14.9895 16.8965L11.1582 18.989M11.1582 14.0829V18.989M11.1582 23.8951V18.989M32.5641 31.0663V17.5295L37.4148 20.2024V33.9033M32.5641 31.0663L37.4148 33.9033M14.0053 31.6675L18.0123 29.1353L26.7996 33.9033M14.0053 31.6675L22.7926 36.2395L26.7996 33.9033M14.0053 31.6675V32.7929L16.1142 33.9071M26.7996 33.9033V35.4658L25.1125 36.295M22.7926 37.4352L22.3708 37.2124M22.7926 37.4352L22.652 40.9522H22.4411L22.3708 37.2124M22.7926 37.4352L24.7961 36.4505M22.3708 37.2124L18.645 35.2441M24.7961 36.4505L25.6046 39.1937L25.8155 39.053L25.1125 36.295M24.7961 36.4505L25.1125 36.295M16.1142 33.9071L15.5518 36.2395H15.7627L16.4657 34.0928M16.1142 33.9071L16.4657 34.0928M16.4657 34.0928L18.3989 35.1141M18.3989 35.1141L18.4341 35.6768H18.5747L18.645 35.2441M18.3989 35.1141L18.645 35.2441" stroke="#E0E0E0" stroke-width="0.5"/>
</svg>
