<svg width="32" height="32" viewBox="0 0 32 32" fill="none" xmlns="http://www.w3.org/2000/svg">
<path fill-rule="evenodd" clip-rule="evenodd" d="M9.33337 8.00004C9.33337 4.31815 12.3181 1.33337 16 1.33337C19.6819 1.33337 22.6667 4.31815 22.6667 8.00004C22.6667 11.6819 19.6819 14.6667 16 14.6667C12.3181 14.6667 9.33337 11.6819 9.33337 8.00004ZM16 4.00004C13.7908 4.00004 12 5.79091 12 8.00004C12 10.2092 13.7908 12 16 12C18.2092 12 20 10.2092 20 8.00004C20 5.79091 18.2092 4.00004 16 4.00004Z" fill="#E0E0E0"/>
<path d="M5.41581 28C6.07195 22.7383 10.5605 18.6667 16 18.6667C17.1936 18.6667 18.3388 18.8623 19.407 19.222L20.6706 19.6476L21.5217 17.1204L20.2581 16.6948C18.9193 16.2439 17.4868 16 16 16C8.63616 16 2.66663 21.9696 2.66663 29.3333V30.6667H14.6666V28H5.41581Z" fill="#E0E0E0"/>
<path fill-rule="evenodd" clip-rule="evenodd" d="M26.6667 16.781L31.219 21.3333L21.8856 30.6666H17.3334V26.1143L26.6667 16.781ZM20 27.2189V27.9999H20.7811L27.4478 21.3333L26.6667 20.5522L20 27.2189Z" fill="#E0E0E0"/>
</svg>
