<svg width="33" height="41" viewBox="0 0 33 41" fill="none" xmlns="http://www.w3.org/2000/svg">
<path d="M19.1485 16.6508H28.6148C28.9762 16.6508 29.2688 16.348 29.2688 15.9867C29.2688 15.6254 28.9762 15.3226 28.6148 15.3226H19.1485C18.7873 15.3226 18.4945 15.6254 18.4945 15.9867C18.4945 16.348 18.7873 16.6508 19.1485 16.6508Z" fill="#E0E0E0"/>
<path d="M19.1485 14.307H28.6148C28.9762 14.307 29.2688 14.0043 29.2688 13.6429C29.2688 13.2816 28.9762 12.9789 28.6148 12.9789H19.1485C18.7873 12.9789 18.4945 13.2816 18.4945 13.6429C18.4945 14.0043 18.7873 14.307 19.1485 14.307Z" fill="#E0E0E0"/>
<path d="M19.1485 9.54138H28.6148C28.9762 9.54138 29.2688 9.23857 29.2688 8.87748C29.2688 8.51623 28.9762 8.21326 28.6148 8.21326H19.1485C18.7873 8.21326 18.4945 8.51623 18.4945 8.87748C18.4945 9.23857 18.7873 9.54138 19.1485 9.54138Z" fill="#E0E0E0"/>
<path d="M25.388 31.186C25.6801 31.3765 25.8623 31.6153 25.8623 31.856C25.8623 32.2172 26.1561 32.5103 26.517 32.5103C26.878 32.5103 27.1714 32.2172 27.1714 31.856C27.1714 31.1466 26.7598 30.5245 26.0979 30.0923C25.6709 29.8136 25.1562 29.6134 24.5312 29.5275V29.3819C24.5312 29.0208 24.228 28.728 23.8673 28.728C23.5061 28.728 23.2031 29.0208 23.2031 29.3819V29.5275C22.6562 29.6135 22.0775 29.8136 21.6508 30.0923C20.989 30.5245 20.5733 31.1466 20.5733 31.856C20.5733 33.4292 21.875 33.8388 23.2031 34.1161V36.3012C22.8906 36.2348 22.5929 36.1192 22.3609 35.9676C22.0687 35.7771 21.8939 35.5383 21.8939 35.2976C21.8939 34.9363 21.6044 34.6433 21.243 34.6433C20.8817 34.6433 20.5902 34.9363 20.5902 35.2976C20.5902 36.0071 20.9883 36.6292 21.65 37.0613C22.0767 37.3401 22.6562 37.5404 23.2031 37.6262V37.7716C23.2031 38.1328 23.5061 38.4255 23.8673 38.4255C24.228 38.4255 24.5312 38.1328 24.5312 37.7716V37.6262C25.1562 37.5403 25.6711 37.3401 26.098 37.0613C26.7601 36.6292 27.1681 36.0071 27.1681 35.2976C27.1681 33.7246 25.9375 33.3151 24.5312 33.0376V30.8524C24.8437 30.9193 25.1561 31.0348 25.388 31.186ZM23.2031 32.7818C22.5 32.6126 21.8877 32.3735 21.8877 31.856C21.8877 31.6153 22.0625 31.3764 22.3548 31.186C22.5869 31.0348 22.8906 30.9193 23.2031 30.8524V32.7818ZM25.861 35.2976C25.861 35.5383 25.679 35.7771 25.3868 35.9676C25.1548 36.1191 24.8437 36.2348 24.5312 36.3012V34.3724C25.2344 34.5411 25.861 34.7804 25.861 35.2976Z" fill="#E0E0E0"/>
<path d="M19.1485 7.11951H28.6148C28.9762 7.11951 29.2688 6.81654 29.2688 6.45529C29.2688 6.09396 28.9762 5.79138 28.6148 5.79138H19.1485C18.7873 5.79138 18.4945 6.09396 18.4945 6.45529C18.4945 6.81654 18.7873 7.11951 19.1485 7.11951Z" fill="#E0E0E0"/>
<path d="M19.1485 4.77576H28.6148C28.9762 4.77576 29.2688 4.47279 29.2688 4.11154C29.2688 3.75037 28.9762 3.44763 28.6148 3.44763H19.1485C18.7873 3.44763 18.4945 3.75037 18.4945 4.11154C18.4945 4.47279 18.7873 4.77576 19.1485 4.77576Z" fill="#E0E0E0"/>
<path d="M19.1485 19.0726H28.6148C28.9762 19.0726 29.2688 18.7696 29.2688 18.4084C29.2688 18.0471 28.9762 17.7445 28.6148 17.7445H19.1485C18.7873 17.7445 18.4945 18.0471 18.4945 18.4084C18.4945 18.7696 18.7873 19.0726 19.1485 19.0726Z" fill="#E0E0E0"/>
<path d="M13.75 32.6953C13.75 32.3341 13.4573 32.0414 13.0962 32.0414H3.62258C3.26148 32.0414 2.96875 32.3341 2.96875 32.6953V37.4812C2.96875 37.8424 3.26148 38.1351 3.62258 38.1351H13.0962C13.4573 38.1351 13.75 37.8424 13.75 37.4812V32.6953ZM4.29688 33.3695H12.4219V36.807H4.29688V33.3695Z" fill="#E0E0E0"/>
<path d="M3.60875 28.6039H13.0749C13.4361 28.6039 13.75 28.2968 13.75 27.9358V23.1701C13.75 22.809 13.4361 22.5101 13.0749 22.5101H3.60875C3.2475 22.5101 2.96875 22.809 2.96875 23.1701V27.9358C2.96875 28.2968 3.2475 28.6039 3.60875 28.6039ZM4.29688 23.8383H12.4219V27.2758H4.29688V23.8383Z" fill="#E0E0E0"/>
<path d="M19.1485 23.8383H28.6148C28.9762 23.8383 29.2688 23.5356 29.2688 23.1744C29.2688 22.8131 28.9762 22.5101 28.6148 22.5101H19.1485C18.7873 22.5101 18.4945 22.8131 18.4945 23.1744C18.4945 23.5356 18.7873 23.8383 19.1485 23.8383Z" fill="#E0E0E0"/>
<path d="M31.7627 0.557007H0.637422C0.276015 0.557007 0 0.849741 0 1.21107V39.9026C0 40.264 0.276015 40.557 0.637422 40.557H23.8819H31.7627C32.1236 40.557 32.4219 40.264 32.4219 39.9026V1.21107C32.4219 0.849741 32.1237 0.557007 31.7627 0.557007ZM23.8819 39.2486C22.316 39.2486 20.8979 38.6133 19.8715 37.587C18.8446 36.5608 18.2097 35.1429 18.2097 33.5769C18.2097 32.0109 18.8446 30.593 19.8715 29.5664C20.8979 28.5402 22.316 27.9051 23.8819 27.9051C25.4474 27.9051 26.8657 28.5402 27.8921 29.5664C28.9187 30.593 29.5534 32.0109 29.5534 33.5769C29.5534 35.1429 28.9187 36.5608 27.8921 37.587C26.8658 38.6133 25.4475 39.2486 23.8819 39.2486ZM31.0937 39.2289H27.95C28.2589 38.9945 28.549 38.7707 28.8172 38.5026C30.0804 37.2391 30.8618 35.4994 30.8618 33.572C30.8618 31.645 30.0804 29.9022 28.8172 28.6389C27.554 27.376 25.8089 26.5958 23.882 26.5958C21.9547 26.5958 20.2095 27.3779 18.9463 28.6408C17.6834 29.904 16.902 31.6496 16.902 33.5767C16.902 35.504 17.6834 37.239 18.9463 38.5025C19.2145 38.7706 19.5049 38.9946 19.8137 39.229H1.32812V1.88513H31.0937V39.2289Z" fill="#E0E0E0"/>
<path d="M19.1485 26.182H28.6148C28.9762 26.182 29.2688 25.9183 29.2688 25.557C29.2688 25.1957 28.9762 24.932 28.6148 24.932H19.1485C18.7873 24.932 18.4945 25.1957 18.4945 25.557C18.4945 25.9183 18.7873 26.182 19.1485 26.182Z" fill="#E0E0E0"/>
<path d="M16.2112 32.1339C16.5724 32.1339 16.875 31.8408 16.875 31.4795V4.08732C16.875 3.72615 16.5724 3.43311 16.2112 3.43311C15.8501 3.43311 15.5469 3.72607 15.5469 4.08732V31.4795C15.5469 31.8408 15.8501 32.1339 16.2112 32.1339Z" fill="#E0E0E0"/>
<path d="M3.60875 9.54138H13.0749C13.4361 9.54138 13.75 9.21388 13.75 8.85279V4.08732C13.75 3.72615 13.4361 3.44763 13.0749 3.44763H3.60875C3.2475 3.44763 2.96875 3.72607 2.96875 4.08732V8.85279C2.96875 9.21388 3.2475 9.54138 3.60875 9.54138ZM4.29688 4.77576H12.4219V8.21326H4.29688V4.77576Z" fill="#E0E0E0"/>
<path d="M13.7812 13.6538C13.7812 13.2927 13.4885 13 13.1274 13H3.65383C3.29273 13 3 13.2927 3 13.6538V18.4399C3 18.801 3.29273 19.0938 3.65383 19.0938H13.1274C13.4885 19.0938 13.7812 18.801 13.7812 18.4399V13.6538ZM4.32812 14.3281H12.4531V17.7656H4.32812V14.3281Z" fill="#E0E0E0"/>
</svg>
