<svg width="54" height="54" viewBox="0 0 54 54" fill="none" xmlns="http://www.w3.org/2000/svg">
<path d="M49.5028 36.6832C49.5028 37.6336 48.7252 38.4112 47.7748 38.4112H44.8426V44.8426H39.4534V42.9526C39.4534 41.4244 38.206 40.1819 36.6832 40.1819C35.155 40.1819 33.913 41.4244 33.913 42.9526V44.8426H28.5292V39.4534H30.4078C30.4132 39.4534 30.4132 39.4534 30.4132 39.4534H30.4246C31.9468 39.4534 33.1948 38.206 33.1948 36.6832C33.1948 35.155 31.9468 33.913 30.4246 33.913H28.5292V28.5184H34.9498V25.5916C34.9498 24.6358 35.7268 23.8582 36.6832 23.8582C37.1584 23.8582 37.5904 24.0526 37.9036 24.3658C38.2168 24.679 38.4112 25.111 38.4112 25.5916V28.5184H44.8426V34.9498H47.7748C48.7252 34.9498 49.5028 35.7274 49.5028 36.6832Z" fill="#F5F5F5"/>
<path d="M31.1418 36.6832C31.1418 37.6336 30.3696 38.4112 29.4138 38.4112H26.4816V44.8426H20.061V47.7748C20.061 48.7306 19.2834 49.5028 18.333 49.5028C17.3772 49.5028 16.5996 48.7252 16.5996 47.7748V44.8426H10.1682V38.4112H7.236C6.2856 38.4112 5.508 37.6336 5.508 36.6832C5.508 35.7269 6.2856 34.9498 7.236 34.9498H10.1682V28.5184H16.5996V25.5916C16.5996 24.6358 17.3718 23.8582 18.3276 23.8582C19.278 23.8582 20.0502 24.6358 20.0502 25.5916V28.5184H26.4816V34.9498H29.4138C30.3696 34.9498 31.1418 35.7274 31.1418 36.6832Z" fill="#F5F5F5"/>
<path d="M21.8214 18.3168C21.8214 19.845 23.0634 21.087 24.5916 21.087H26.4816V26.4816H21.1032V24.5916C21.1032 23.0634 19.8558 21.8214 18.333 21.8214C18.3276 21.8214 18.3276 21.8214 18.3276 21.8214C18.3222 21.8214 18.3222 21.8214 18.3222 21.8214C16.794 21.8214 15.552 23.0634 15.552 24.5916V26.4816H10.1574V20.0502H7.22519C6.27479 20.0502 5.49719 19.2726 5.49719 18.3222C5.49719 17.3664 6.27479 16.5888 7.22519 16.5888H10.1574V10.1574H16.5888V7.22519C16.5888 6.27479 17.3664 5.49719 18.3222 5.49719C19.2726 5.49719 20.0502 6.27479 20.0502 7.22519V10.1574H26.4816V15.552H24.5916C23.0634 15.552 21.8214 16.794 21.8214 18.3168Z" fill="#F5F5F5"/>
<path d="M42.7717 6.29741V6.79741H43.2717H49.2032V11.192H47.8072C46.0095 11.192 44.537 12.6566 44.537 14.4568C44.537 16.2618 46.0095 17.727 47.8072 17.727H49.2032V22.1216H44.8139V20.7316C44.8139 19.8253 44.443 19.0088 43.8521 18.4179L43.8519 18.4177C43.2592 17.8256 42.4429 17.4614 41.5438 17.4614C39.7394 17.4614 38.2736 18.9273 38.2736 20.7316V22.1216H33.8789V16.1902V15.6902H33.3789H30.4467C29.7735 15.6902 29.2188 15.1375 29.2188 14.4568C29.2188 13.7825 29.7725 13.2288 30.4467 13.2288H33.3789H33.8789V12.7288V6.79741H39.8103H40.3103V6.29741V3.36521C40.3103 2.69186 40.8626 2.13721 41.5438 2.13721C42.218 2.13721 42.7717 2.69095 42.7717 3.36521V6.29741Z" stroke="#F5F5F5"/>
</svg>
