<svg width="40" height="41" viewBox="0 0 40 41" fill="none" xmlns="http://www.w3.org/2000/svg">
<path d="M20 10.8383C22.1562 10.8383 23.9062 9.08826 23.9062 6.93201C23.9062 4.77576 22.1562 3.02576 20 3.02576C17.8438 3.02576 16.0938 4.77576 16.0938 6.93201C16.0938 9.07263 17.8438 10.8383 20 10.8383ZM20 4.61951C21.2656 4.61951 22.3125 5.65076 22.3125 6.93201C22.3125 8.19763 21.2812 9.24451 20 9.24451C18.7344 9.24451 17.6875 8.21326 17.6875 6.93201C17.7031 5.65076 18.7344 4.61951 20 4.61951Z" fill="#E0E0E0"/>
<path d="M11.5 26.0101C11.1719 26.0883 10.9219 26.3851 10.9063 26.7289L10.3125 35.8695C10.2969 36.2289 10 36.4945 9.64062 36.4945H5.10938C4.75 36.4945 4.45312 36.2133 4.4375 35.8695L3.82812 26.7445C3.8125 26.4164 3.57812 26.1351 3.26562 26.0414C3.09375 25.9945 2.59375 25.8383 2.51562 25.7445C2.45312 25.6508 2.42188 25.1351 2.40625 24.8695L1.85937 15.1976C2.64062 14.9633 3.92187 14.557 4.59375 14.3383L6.82813 16.432C7.14063 16.7133 7.60938 16.7133 7.92188 16.432L10.1562 14.3383C10.375 14.4008 10.6406 14.4945 10.9375 14.5883C11.3594 14.7289 11.8125 14.4945 11.9375 14.0726C12.0781 13.6508 11.8438 13.1976 11.4219 13.0726C10.75 12.8539 10.2031 12.682 10.2031 12.682C9.92188 12.5883 9.625 12.6664 9.40625 12.8539L7.375 14.7601L5.34375 12.8539C5.125 12.6508 4.82812 12.5883 4.54688 12.682C4.54688 12.682 2.40625 13.3695 1.32812 13.6976C0.65625 13.9008 0.25 14.432 0.25 15.1351C0.25 15.182 0.25 15.307 0.25 15.307L0.78125 24.8383C0.78125 24.8383 0.78125 24.9789 0.796875 25.0101C0.890625 26.4164 1.09375 26.932 2.26562 27.3851L2.82812 35.9789C2.90625 37.1664 3.90625 38.1039 5.09375 38.1039H9.625C10.8125 38.1039 11.8125 37.1664 11.8906 35.9789L12.4688 27.0726C12.5313 26.9164 12.5313 26.7289 12.4844 26.557C12.375 26.1351 11.9219 25.9008 11.5 26.0101Z" fill="#E0E0E0"/>
<path d="M7.35937 11.3851C9.51562 11.3851 11.2656 9.63513 11.2656 7.47888C11.2656 5.32263 9.51562 3.57263 7.35937 3.57263C5.20312 3.57263 3.45312 5.32263 3.45312 7.47888C3.45312 9.63513 5.21875 11.3851 7.35937 11.3851ZM7.35937 5.18201C8.625 5.18201 9.67188 6.21326 9.67188 7.49451C9.67188 8.77576 8.64062 9.80701 7.35937 9.80701C6.09375 9.80701 5.04687 8.77576 5.04687 7.49451C5.04687 6.21326 6.09375 5.18201 7.35937 5.18201Z" fill="#E0E0E0"/>
<path d="M26.0469 13.6664C24.9687 13.3383 22.8281 12.6508 22.8281 12.6508C22.5469 12.557 22.25 12.6351 22.0312 12.8226L20 14.7289L17.9688 12.8226C17.75 12.6195 17.4531 12.557 17.1719 12.6508C17.1719 12.6508 15.0313 13.3383 13.9531 13.6664C13.2656 13.8695 12.875 14.4008 12.875 15.1039L13.4063 24.8383L13.4219 24.9945C13.5156 26.4008 13.7188 26.932 14.8906 27.3695L15.4531 35.9633C15.5312 37.1508 16.5312 38.0883 17.7188 38.0883H22.2656C23.4531 38.0883 24.4531 37.1508 24.5312 35.9633L25.0938 27.3695C26.2656 26.9164 26.4688 26.3851 26.5625 24.9945L27.1094 15.2445V15.1039C27.125 14.3851 26.7344 13.8695 26.0469 13.6664ZM24.9844 24.7133L24.9688 24.8695C24.9531 25.1195 24.9219 25.6195 24.8594 25.7133C24.7813 25.807 24.2656 25.9633 24.0937 26.0101C23.7812 26.1039 23.5469 26.3851 23.5313 26.7289L22.9375 35.8539C22.9219 36.2133 22.625 36.4789 22.2656 36.4789H17.7188C17.3594 36.4789 17.0781 36.1976 17.0469 35.8539L16.4531 26.7289C16.4375 26.4008 16.2031 26.1195 15.8906 26.0101C15.7187 25.9633 15.2188 25.807 15.1406 25.7133C15.0781 25.6195 15.0469 25.1039 15.0312 24.8695L14.4844 15.1976V15.1508C15.2656 14.9164 16.5469 14.5101 17.2187 14.2914L19.4531 16.3851C19.7656 16.6664 20.2344 16.6664 20.5469 16.3851L22.7812 14.307C23.4531 14.5258 24.7344 14.932 25.5156 15.1664L24.9844 24.7133Z" fill="#E0E0E0"/>
<path d="M38.6875 13.6664C37.6094 13.3383 35.4688 12.6508 35.4688 12.6508C35.1875 12.557 34.8906 12.6351 34.6719 12.8226L32.6406 14.7289L30.6094 12.8226C30.3906 12.6195 30.0938 12.557 29.8125 12.6508C29.8125 12.6508 29.2656 12.8226 28.5938 13.0414C28.1719 13.182 27.9375 13.6195 28.0781 14.0414C28.2187 14.4633 28.6563 14.6976 29.0781 14.557C29.375 14.4633 29.6406 14.3695 29.8594 14.307L32.0937 16.4008C32.4062 16.682 32.875 16.682 33.1875 16.4008L35.4219 14.307C36.0937 14.5258 37.3594 14.9164 38.1562 15.1664L37.625 24.7133L37.6094 24.8695C37.5937 25.1195 37.5625 25.6195 37.5 25.7133C37.4219 25.807 36.9063 25.9633 36.7344 26.0101C36.4219 26.1039 36.1875 26.3851 36.1719 26.7289L35.5781 35.8539C35.5469 36.2133 35.25 36.4789 34.9062 36.4789H30.3594C30.0156 36.4789 29.7188 36.1976 29.6875 35.8539L29.0781 26.7289C29.0625 26.4008 28.7969 26.1195 28.4844 26.0101C28.0625 25.8695 27.6406 26.1039 27.5 26.5258C27.4531 26.682 27.4531 26.8539 27.5 26.9945L28.0938 35.9633C28.1719 37.1508 29.1563 38.0883 30.3594 38.0883H34.9062C36.0937 38.0883 37.0937 37.1508 37.1719 35.9633L37.7344 27.3695C38.9062 26.9164 39.1094 26.4008 39.2031 25.0101C39.2031 24.9476 39.2188 24.807 39.2188 24.807L39.75 15.2289V15.0883C39.75 14.4008 39.3594 13.8695 38.6875 13.6664Z" fill="#E0E0E0"/>
<path d="M32.6406 11.3851C34.7969 11.3851 36.5469 9.63513 36.5469 7.47888C36.5469 5.32263 34.7969 3.57263 32.6406 3.57263C30.4844 3.57263 28.7344 5.32263 28.7344 7.47888C28.7344 9.63513 30.4844 11.3851 32.6406 11.3851ZM32.6406 5.18201C33.9062 5.18201 34.9531 6.21326 34.9531 7.49451C34.9531 8.77576 33.9219 9.80701 32.6406 9.80701C31.375 9.80701 30.3281 8.77576 30.3281 7.49451C30.3281 6.21326 31.3594 5.18201 32.6406 5.18201Z" fill="#E0E0E0"/>
</svg>
